<svg xmlns="http://www.w3.org/2000/svg" width="156.14" height="26.662" viewBox="0 0 156.14 26.662">
  <g id="_2263144933888" transform="translate(0 0)">
    <g id="Grupo_336" data-name="Grupo 336" transform="translate(0 0)">
      <g id="Grupo_335" data-name="Grupo 335">
        <path id="Caminho_365" data-name="Caminho 365" d="M163.224,19.308a1.915,1.915,0,0,1-1.655-1.213L156.825,4.855V18.011a1.271,1.271,0,0,1-1.27,1.3h-2.427a1.272,1.272,0,0,1-1.268-1.3V1.3A1.267,1.267,0,0,1,153.1,0h5.489a1.831,1.831,0,0,1,1.627,1.269l3.972,11.5,3.973-11.5A1.832,1.832,0,0,1,169.791,0h5.488a1.267,1.267,0,0,1,1.241,1.3V18.011a1.272,1.272,0,0,1-1.269,1.3h-2.428a1.271,1.271,0,0,1-1.269-1.3V4.855L166.811,18.1a1.916,1.916,0,0,1-1.656,1.213h-1.93Z" transform="translate(-146.473 0)" fill="#373435"/>
        <path id="Caminho_366" data-name="Caminho 366" d="M945.806,15.6c2.455,0,3.557-1.269,3.557-3.917V1.259a1.266,1.266,0,0,1,1.27-1.269h2.51a1.27,1.27,0,0,1,1.3,1.269v10.4c0,4.881-2.869,7.751-8.5,7.751h-2.426c-5.628,0-8.5-2.87-8.5-7.751V1.259a1.272,1.272,0,0,1,1.3-1.269h2.51a1.266,1.266,0,0,1,1.27,1.269V11.686c0,2.648,1.1,3.917,3.558,3.917h2.152Z" transform="translate(-901.849 0.01)" fill="#373435"/>
        <path id="Caminho_367" data-name="Caminho 367" d="M1567.186,0a1.273,1.273,0,0,1,1.27,1.3V15.5h11.723a1.267,1.267,0,0,1,1.269,1.269V18.04a1.266,1.266,0,0,1-1.269,1.269h-15.53a1.259,1.259,0,0,1-1.269-1.241V1.3a1.272,1.272,0,0,1,1.269-1.3h2.537Z" transform="translate(-1507.918 0)" fill="#373435"/>
        <path id="Caminho_368" data-name="Caminho 368" d="M1943.321,0a1.248,1.248,0,0,1,1.269,1.269V2.538a1.248,1.248,0,0,1-1.269,1.269h-6.014v14.26a1.259,1.259,0,0,1-1.268,1.241H1933.5a1.26,1.26,0,0,1-1.269-1.241V3.807h-6.013a1.248,1.248,0,0,1-1.269-1.269V1.269A1.248,1.248,0,0,1,1926.219,0h17.1Z" transform="translate(-1856.66 0)" fill="#373435"/>
        <path id="Caminho_369" data-name="Caminho 369" d="M2795.35,19.308a2.049,2.049,0,0,1-1.932-1.38l-7.751-16.8c-.275-.58.276-1.131.884-1.131h2.952a1.891,1.891,0,0,1,1.6,1.269l5.213,11.613,5.214-11.613a1.894,1.894,0,0,1,1.6-1.269h2.951c.606,0,1.159.551.882,1.131l-7.749,16.8a2.049,2.049,0,0,1-1.932,1.38Z" transform="translate(-2686.773 0)" fill="#373435"/>
        <path id="Caminho_370" data-name="Caminho 370" d="M2555.81,1.269A1.265,1.265,0,0,1,2557.078,0h2.51a1.273,1.273,0,0,1,1.3,1.269V18.04a1.29,1.29,0,0,1-1.3,1.269h-2.51a1.259,1.259,0,0,1-1.268-1.241V1.269Z" transform="translate(-2465.14 0)" fill="#373435"/>
        <path id="Caminho_371" data-name="Caminho 371" d="M3476.66,1.269A1.266,1.266,0,0,1,3477.929,0h2.51a1.272,1.272,0,0,1,1.3,1.269V18.04a1.289,1.289,0,0,1-1.3,1.269h-2.51a1.26,1.26,0,0,1-1.269-1.241V1.269Z" transform="translate(-3353.322 0)" fill="#373435"/>
        <path id="Caminho_372" data-name="Caminho 372" d="M3701.439,5.958l3.7-4.69A2.918,2.918,0,0,1,3707.479,0h2.9c.717,0,.995.608.471,1.269l-6.4,8.111,6.787,8.66c.524.662.248,1.269-.471,1.269h-2.867a2.916,2.916,0,0,1-2.346-1.269L3701.44,12.8l-4.109,5.242a2.918,2.918,0,0,1-2.347,1.269h-2.868c-.717,0-.993-.607-.468-1.269l6.786-8.66-6.4-8.111c-.524-.66-.247-1.269.469-1.269h2.9a2.92,2.92,0,0,1,2.345,1.269l3.7,4.69Z" transform="translate(-3560.42 0)" fill="#373435"/>
        <path id="Caminho_373" data-name="Caminho 373" d="M78.235,685.722,0,684.511,78.052,683.3l78.088,1.226Z" transform="translate(0 -659.06)" fill="#a93c40"/>
      </g>
    </g>
  </g>
</svg>
